<svg xmlns="http://www.w3.org/2000/svg" version="1.1" xmlns:xlink="http://www.w3.org/1999/xlink" xmlns:svgjs="http://svgjs.dev/svgjs" width="1500" height="1500" viewBox="0 0 1500 1500"><rect width="1500" height="1500" fill="#000000"></rect><g transform="matrix(0.6666666666666666,0,0,0.6666666666666666,249.92147592934185,288.04102564102567)"><svg viewBox="0 0 267 247" data-background-color="#ffffff" preserveAspectRatio="xMidYMid meet" height="1387" width="1500" xmlns="http://www.w3.org/2000/svg" xmlns:xlink="http://www.w3.org/1999/xlink"><g id="tight-bounds" transform="matrix(1,0,0,1,0.020965926865727624,-0.09999999999999432)"><svg viewBox="0 0 266.95806814626854 247.2" height="247.2" width="266.95806814626854"><g><svg viewBox="0 0 395.52 366.24682175340587" height="247.2" width="266.95806814626854"><g transform="matrix(1,0,0,1,0,279.9804167578662)"><svg viewBox="0 0 395.52 86.26640499553969" height="86.26640499553969" width="395.52"><g id="textblocktransform"><svg viewBox="0 0 395.52 86.26640499553969" height="86.26640499553969" width="395.52" id="textblock"><g><svg viewBox="0 0 395.52 86.26640499553969" height="86.26640499553969" width="395.52"><g transform="matrix(1,0,0,1,0,0)"><svg width="395.52" viewBox="1.2 -38.85 224.18 48.900000000000006" height="86.26640499553969" data-palette-color="#4b91f1"><path d="M25.2-34.25L25.2-34.25 23.25-29.8Q21.2-30.55 19.18-31 17.15-31.45 15.3-31.45L15.3-31.45Q12.15-31.45 10.28-30.15 8.4-28.85 8.4-26.85L8.4-26.85Q8.4-25.15 9.75-24.13 11.1-23.1 13.1-22.28 15.1-21.45 17.45-20.63 19.8-19.8 21.8-18.5 23.8-17.2 25.15-15.23 26.5-13.25 26.5-10.15L26.5-10.15Q26.5-7.75 25.63-5.83 24.75-3.9 23.03-2.5 21.3-1.1 18.73-0.35 16.15 0.4 12.7 0.4L12.7 0.4Q10.5 0.4 8.72 0.1 6.95-0.2 5.53-0.68 4.1-1.15 3.03-1.7 1.95-2.25 1.2-2.7L1.2-2.7 3.6-7.45Q5.6-6.3 8.05-5.6 10.5-4.9 12.5-4.9L12.5-4.9Q13.5-4.9 14.98-5.15 16.45-5.4 17.8-6.03 19.15-6.65 20.13-7.7 21.1-8.75 21.1-10.35L21.1-10.35Q21.1-11.8 20.33-12.83 19.55-13.85 18.28-14.63 17-15.4 15.38-16.03 13.75-16.65 12.05-17.32 10.35-18 8.72-18.75 7.1-19.5 5.83-20.58 4.55-21.65 3.78-23.08 3-24.5 3-26.5L3-26.5Q3-28.35 3.75-30.15 4.5-31.95 6-33.35 7.5-34.75 9.73-35.6 11.95-36.45 14.9-36.45L14.9-36.45Q16.7-36.45 18.43-36.15 20.15-35.85 21.55-35.48 22.95-35.1 23.93-34.75 24.9-34.4 25.2-34.25ZM30.8 0L30.8-38.85 35.05-38.85 35.05-15.85Q36.15-18.35 38.15-19.88 40.15-21.4 43.3-21.45L43.3-21.45Q46.5-21.5 48.42-19.75 50.35-18 50.45-15.2L50.45-15.2 50.45 0 46.15 0 46.15-13.25Q46.05-14.85 45.05-15.98 44.05-17.1 41.9-17.2L41.9-17.2Q40.4-17.2 39.15-16.68 37.9-16.15 37-15.25 36.1-14.35 35.57-13.1 35.05-11.85 35.05-10.35L35.05-10.35 35.05 0 30.8 0ZM54.8-10.5L54.8-10.5Q54.8-12.75 55.67-14.75 56.55-16.75 58.05-18.23 59.55-19.7 61.57-20.58 63.6-21.45 65.95-21.45L65.95-21.45Q68.3-21.45 70.32-20.58 72.34-19.7 73.82-18.23 75.3-16.75 76.12-14.75 76.95-12.75 76.95-10.5L76.95-10.5Q76.95-8.25 76.12-6.25 75.3-4.25 73.82-2.75 72.34-1.25 70.32-0.38 68.3 0.5 65.9 0.5L65.9 0.5Q63.6 0.5 61.57-0.3 59.55-1.1 58.05-2.55 56.55-4 55.67-6.03 54.8-8.05 54.8-10.5ZM59.05-10.45L59.05-10.45Q59.05-9.05 59.57-7.83 60.1-6.6 61.02-5.68 61.95-4.75 63.17-4.23 64.4-3.7 65.8-3.7L65.8-3.7Q67.2-3.7 68.45-4.23 69.7-4.75 70.62-5.68 71.55-6.6 72.09-7.83 72.65-9.05 72.65-10.45L72.65-10.45Q72.65-11.85 72.09-13.1 71.55-14.35 70.62-15.28 69.7-16.2 68.45-16.73 67.2-17.25 65.8-17.25L65.8-17.25Q64.4-17.25 63.17-16.73 61.95-16.2 61.02-15.28 60.1-14.35 59.57-13.1 59.05-11.85 59.05-10.45ZM99.19-10.5L99.19-10.5Q99.19-11.95 98.74-13.18 98.29-14.4 97.44-15.3 96.59-16.2 95.39-16.73 94.19-17.25 92.69-17.25L92.69-17.25Q91.19-17.25 89.92-16.73 88.64-16.2 87.74-15.3 86.84-14.4 86.32-13.18 85.79-11.95 85.79-10.5L85.79-10.5Q85.79-9.05 86.32-7.8 86.84-6.55 87.74-5.65 88.64-4.75 89.92-4.23 91.19-3.7 92.69-3.7L92.69-3.7Q94.19-3.7 95.39-4.23 96.59-4.75 97.44-5.68 98.29-6.6 98.74-7.83 99.19-9.05 99.19-10.5ZM103.84-10.4L103.84-10.4Q103.84-8.05 103.04-6.05 102.24-4.05 100.79-2.6 99.34-1.15 97.32-0.33 95.29 0.5 92.89 0.5L92.89 0.5Q91.64 0.5 90.52 0.23 89.39-0.05 88.44-0.53 87.49-1 86.79-1.58 86.09-2.15 85.74-2.75L85.74-2.75Q85.74-2.5 85.77-2.23 85.79-1.95 85.79-1.7L85.79-1.7 85.79 10.05 81.49 10.05 81.49-20.9 85.64-20.9Q85.64-20.3 85.72-19.43 85.79-18.55 85.79-17.85L85.79-17.85Q86.19-18.45 86.87-19.07 87.54-19.7 88.47-20.23 89.39-20.75 90.54-21.1 91.69-21.45 93.09-21.45L93.09-21.45Q95.49-21.45 97.47-20.68 99.44-19.9 100.87-18.48 102.29-17.05 103.07-15 103.84-12.95 103.84-10.4ZM137.19-34.25L137.19-34.25 135.24-29.8Q133.19-30.55 131.16-31 129.14-31.45 127.29-31.45L127.29-31.45Q124.14-31.45 122.26-30.15 120.39-28.85 120.39-26.85L120.39-26.85Q120.39-25.15 121.74-24.13 123.09-23.1 125.09-22.28 127.09-21.45 129.44-20.63 131.79-19.8 133.79-18.5 135.79-17.2 137.14-15.23 138.49-13.25 138.49-10.15L138.49-10.15Q138.49-7.75 137.61-5.83 136.74-3.9 135.01-2.5 133.29-1.1 130.71-0.35 128.14 0.4 124.69 0.4L124.69 0.4Q122.49 0.4 120.71 0.1 118.94-0.2 117.51-0.68 116.09-1.15 115.01-1.7 113.94-2.25 113.19-2.7L113.19-2.7 115.59-7.45Q117.59-6.3 120.04-5.6 122.49-4.9 124.49-4.9L124.49-4.9Q125.49-4.9 126.96-5.15 128.44-5.4 129.79-6.03 131.14-6.65 132.11-7.7 133.09-8.75 133.09-10.35L133.09-10.35Q133.09-11.8 132.31-12.83 131.54-13.85 130.26-14.63 128.99-15.4 127.36-16.03 125.74-16.65 124.04-17.32 122.34-18 120.71-18.75 119.09-19.5 117.81-20.58 116.54-21.65 115.76-23.08 114.99-24.5 114.99-26.5L114.99-26.5Q114.99-28.35 115.74-30.15 116.49-31.95 117.99-33.35 119.49-34.75 121.71-35.6 123.94-36.45 126.89-36.45L126.89-36.45Q128.69-36.45 130.41-36.15 132.14-35.85 133.54-35.48 134.94-35.1 135.91-34.75 136.89-34.4 137.19-34.25ZM156.99-5.15L156.99-5.15Q157.69-4.3 158.31-3.53 158.94-2.75 159.59-1.9L159.59-1.9Q158.19-0.8 156.44-0.15 154.69 0.5 152.64 0.5L152.64 0.5Q150.34 0.5 148.31-0.38 146.29-1.25 144.79-2.75 143.29-4.25 142.41-6.25 141.54-8.25 141.54-10.5L141.54-10.5Q141.54-12.75 142.41-14.75 143.29-16.75 144.79-18.23 146.29-19.7 148.31-20.58 150.34-21.45 152.64-21.45L152.64-21.45Q154.74-21.45 156.51-20.8 158.29-20.15 159.74-19.05L159.74-19.05 156.99-15.8Q156.14-16.5 155.04-16.88 153.94-17.25 152.64-17.25L152.64-17.25Q151.14-17.25 149.89-16.73 148.64-16.2 147.71-15.3 146.79-14.4 146.29-13.18 145.79-11.95 145.79-10.5L145.79-10.5Q145.79-9.05 146.29-7.83 146.79-6.6 147.71-5.68 148.64-4.75 149.89-4.23 151.14-3.7 152.64-3.7L152.64-3.7Q153.94-3.7 155.04-4.08 156.14-4.45 156.99-5.15ZM161.58-10.5L161.58-10.5Q161.58-12.75 162.46-14.75 163.33-16.75 164.83-18.23 166.33-19.7 168.36-20.58 170.38-21.45 172.73-21.45L172.73-21.45Q175.08-21.45 177.11-20.58 179.13-19.7 180.61-18.23 182.08-16.75 182.91-14.75 183.73-12.75 183.73-10.5L183.73-10.5Q183.73-8.25 182.91-6.25 182.08-4.25 180.61-2.75 179.13-1.25 177.11-0.38 175.08 0.5 172.68 0.5L172.68 0.5Q170.38 0.5 168.36-0.3 166.33-1.1 164.83-2.55 163.33-4 162.46-6.03 161.58-8.05 161.58-10.5ZM165.83-10.45L165.83-10.45Q165.83-9.05 166.36-7.83 166.88-6.6 167.81-5.68 168.73-4.75 169.96-4.23 171.18-3.7 172.58-3.7L172.58-3.7Q173.98-3.7 175.23-4.23 176.48-4.75 177.41-5.68 178.33-6.6 178.88-7.83 179.43-9.05 179.43-10.45L179.43-10.45Q179.43-11.85 178.88-13.1 178.33-14.35 177.41-15.28 176.48-16.2 175.23-16.73 173.98-17.25 172.58-17.25L172.58-17.25Q171.18-17.25 169.96-16.73 168.73-16.2 167.81-15.28 166.88-14.35 166.36-13.1 165.83-11.85 165.83-10.45ZM207.73-20.9L207.73 0.45 204.13 0.45 203.63-5.35Q202.48-2.8 200.41-1.15 198.33 0.5 195.13 0.5L195.13 0.5Q191.93 0.5 190.06-1.23 188.18-2.95 188.08-5.75L188.08-5.75 188.08-20.9 192.33-20.9 192.33-7.65Q192.43-6.1 193.46-5 194.48-3.9 196.63-3.75L196.63-3.75Q198.13-3.75 199.38-4.28 200.63-4.8 201.53-5.7 202.43-6.6 202.93-7.85 203.43-9.1 203.43-10.6L203.43-10.6 203.43-20.9 207.73-20.9ZM215.53-20.85L215.53-30.1 219.78-30.1 219.78-20.85 225.38-20.85 225.38-17.05 219.78-17.05 219.78 0 215.53 0 215.53-17.05 211.78-17.05 211.78-20.85 215.53-20.85Z" opacity="1" transform="matrix(1,0,0,1,0,0)" fill="#ffffff" class="wordmark-text-0" data-fill-palette-color="primary" id="text-0"></path></svg></g></svg></g></svg></g></svg></g><g transform="matrix(1,0,0,1,67.9525055339304,0)"><svg viewBox="0 0 259.61498893213917 259.61498893213917" height="259.61498893213917" width="259.61498893213917"><g><svg></svg></g><g id="icon-0"><svg viewBox="0 0 259.61498893213917 259.61498893213917" height="259.61498893213917" width="259.61498893213917"><g><rect width="236.05733252903764" height="236.05733252903764" x="11.778828201550766" y="11.778828201550766" fill="#ffffff" data-fill-palette-color="accent"></rect><rect width="236.05733252903764" height="236.05733252903764" x="8.881784197001252e-15" y="23.557656403101525" fill="#ffffff" opacity="0.5" data-fill-palette-color="accent"></rect></g><g transform="matrix(1,0,0,1,33.6537948615736,76.75125664858876)"><svg viewBox="0 0 192.30739920899197 106.11247563496164" height="106.11247563496164" width="192.30739920899197"><g><svg xmlns="http://www.w3.org/2000/svg" xmlns:xlink="http://www.w3.org/1999/xlink" version="1.1" x="0" y="0" viewBox="10 26.5 70 38.625" enable-background="new 0 0 90 90" xml:space="preserve" height="106.11247563496164" width="192.30739920899197" class="icon-cg-0" data-fill-palette-color="quaternary" id="cg-0"><g fill="#ffffff" data-fill-palette-color="quaternary"><path d="M45.375 55.125C33.365 55.125 23.119 47 19.086 37H17.25c0 15 12.592 28.125 28.125 28.125S73.5 52 73.5 37h-1.837C67.631 47 57.385 55.125 45.375 55.125z" fill="#000000" data-fill-palette-color="quaternary"></path><circle cx="12.75" cy="29.25" r="2.8" fill="#000000" data-fill-palette-color="quaternary"></circle><circle cx="77.25" cy="29.25" r="2.8" fill="#000000" data-fill-palette-color="quaternary"></circle></g></svg></g></svg></g></svg></g></svg></g><g></g></svg></g><defs></defs></svg><rect width="266.95806814626854" height="247.2" fill="none" stroke="none" visibility="hidden"></rect></g></svg></g></svg>